<?xml version="1.0" encoding="UTF-8"?><svg id="Layer_2" xmlns="http://www.w3.org/2000/svg" width="1188.89" height="179.82" xmlns:xlink="http://www.w3.org/1999/xlink" viewBox="0 0 1188.89 179.82"><defs><style>.cls-1{clip-path:url(#clippath);}.cls-2{fill:#ea0000;}.cls-2,.cls-3{stroke:#ea0000;stroke-miterlimit:10;stroke-width:2px;}.cls-4{clip-path:url(#clippath-1);}.cls-5{clip-path:url(#clippath-4);}.cls-6{clip-path:url(#clippath-3);}.cls-7{clip-path:url(#clippath-2);}.cls-8{clip-path:url(#clippath-6);}.cls-9{clip-path:url(#clippath-5);}.cls-3{fill:none;}</style><clipPath id="clippath"><path class="cls-3" d="M133.25,112.86c-25.34-23-84.11-13.73-84.3-17.11-.19-3.42,60.84,1.29,84.13-24.5,11.88-13.15,13.34-33.58,2.25-46.69-10.87-12.86-30.74-15.04-62.66-18.53C43.67,2.85,18.89,3.91,1,5.68V178.54c31.48-.14,56.32-.33,71.84-.45,42.47-.34,52.65-.56,61.14-7.03,16.88-12.86,16.61-42.44-.73-58.19Z"/></clipPath><clipPath id="clippath-1"><path class="cls-3" d="M299.59,41.93c35.91,54.91,20.94,133.97,5.72,136.44-15.53,2.51-27.36-75.37-56.5-75.7-29.46-.33-43.1,78.99-58.65,76.07-14.84-2.79-24.92-79.32,8.58-136.81,7.75-13.29,21.91-37.59,44.7-39.69,28.46-2.63,50.58,31.18,56.14,39.69Z"/></clipPath><clipPath id="clippath-2"><path class="cls-3" d="M436.21,121.54c-8.45,0-16.5,.75-23.81,2.1,2.06-11.01,3.22-23.48,3.22-36.69,0-18.74-.45-68.05-29.5-80.72-5.25-2.29-16.16-5.44-34.69,0V173.92c20.04,3.56,50.09,6.47,84.79,0,8.24-1.54,60.67-11.25,60.67-26.19s-27.16-26.19-60.67-26.19Z"/></clipPath><clipPath id="clippath-3"><path class="cls-3" d="M649.4,40.84c35.91,54.91,20.94,133.97,5.72,136.44-15.53,2.51-27.36-75.37-56.5-75.7-29.46-.33-43.1,78.99-58.65,76.07-14.84-2.79-24.92-79.32,8.58-136.81,7.75-13.29,21.91-37.59,44.7-39.69,28.46-2.63,50.58,31.18,56.14,39.69Z"/></clipPath><clipPath id="clippath-4"><path class="cls-3" d="M835.48,3.94h-38.98V109.18c-2.62-9.47-5.97-19.62-10.3-30.14-13.58-33.03-31.37-56.76-45.89-72.63-12.99-.29-25.99-.59-38.98-.88V178.49h38.98V92.32c1.17,3.26,2.41,6.56,3.72,9.87,17.45,44.28,40.17,76.05,52.47,74.2,12.99,.17,25.99,.34,38.98,.51v-.16s.03,0,.05,0c4.96,.04,10.98-49.3,11.24-84.26,.16-21.66-1.78-51.98-11.29-88.54Z"/></clipPath><clipPath id="clippath-5"><path class="cls-3" d="M907.43,17.38c44.97-33.11,110.21,.68,109.93,16.76-.36,20.47-107.08,22.36-108.57,49.36-1.52,27.64,109.38,43.5,107.78,67.22-1.23,18.22-69.13,45.32-112.61,9.99-3.49-2.83-30.4-25.48-32.32-65.4-1.63-33.94,15.63-63.09,35.79-77.93Z"/></clipPath><clipPath id="clippath-6"><path class="cls-3" d="M1103.97,116.06c1.13-14.61,54.92-18.21,54.86-30.31-.06-12.15-54.39-16.33-54.86-28.77-.59-15.63,84.46-26.37,83.93-38.36-.25-5.68-19.7-11.71-85.02-16.5h-60.31V87.53c-.15,2.53-.17,5.11-.02,7.74,0,.13,.02,.25,.02,.38v81.02h60.31c65.34-1.02,84.02-6.36,84.65-12.28,1.38-13.06-85-29.64-83.56-48.34Z"/></clipPath></defs><g id="Layer_1-2"><g><g class="cls-1"><path class="cls-2" d="M155.24,179.94H.88V109.01c17.76-28.98,32.82-35.85,43.94-35.97,18.9-.22,26.94,19.05,50.61,23.61,20.78,4,40.87-5.79,55.77-15.97,1.35,33.09,2.7,66.18,4.05,99.27Z"/></g><path class="cls-3" d="M133.25,112.86c-25.34-23-84.11-13.73-84.3-17.11-.19-3.42,60.84,1.29,84.13-24.5,11.88-13.15,13.34-33.58,2.25-46.69-10.87-12.86-30.74-15.04-62.66-18.53C43.67,2.85,18.89,3.91,1,5.68V178.54c31.48-.14,56.32-.33,71.84-.45,42.47-.34,52.65-.56,61.14-7.03,16.88-12.86,16.61-42.44-.73-58.19Z"/></g><g><g class="cls-4"><path class="cls-2" d="M327.53,179.73H176.44V108.79c17.38-28.98,32.13-35.85,43.01-35.97,18.5-.22,26.37,19.05,49.54,23.61,20.34,4,40.01-5.79,54.59-15.97,1.32,33.09,2.64,66.18,3.96,99.27Z"/></g><path class="cls-3" d="M299.59,41.93c35.91,54.91,20.94,133.97,5.72,136.44-15.53,2.51-27.36-75.37-56.5-75.7-29.46-.33-43.1,78.99-58.65,76.07-14.84-2.79-24.92-79.32,8.58-136.81,7.75-13.29,21.91-37.59,44.7-39.69,28.46-2.63,50.58,31.18,56.14,39.69Z"/></g><g><g class="cls-7"><path class="cls-2" d="M501.06,179.21h-149.63V108.28c17.21-28.98,31.82-35.85,42.59-35.97,18.33-.22,26.12,19.05,49.06,23.61,20.14,4,39.62-5.79,54.06-15.97,1.31,33.09,2.62,66.18,3.92,99.27Z"/></g><path class="cls-3" d="M436.21,121.54c-8.45,0-16.5,.75-23.81,2.1,2.06-11.01,3.22-23.48,3.22-36.69,0-18.74-.45-68.05-29.5-80.72-5.25-2.29-16.16-5.44-34.69,0V173.92c20.04,3.56,50.09,6.47,84.79,0,8.24-1.54,60.67-11.25,60.67-26.19s-27.16-26.19-60.67-26.19Z"/></g><g><g class="cls-6"><path class="cls-2" d="M678.8,178.63h-152.54V107.7c17.55-28.98,32.44-35.85,43.42-35.97,18.68-.22,26.62,19.05,50.01,23.61,20.53,4,40.39-5.79,55.11-15.97l4,99.27Z"/></g><path class="cls-3" d="M649.4,40.84c35.91,54.91,20.94,133.97,5.72,136.44-15.53,2.51-27.36-75.37-56.5-75.7-29.46-.33-43.1,78.99-58.65,76.07-14.84-2.79-24.92-79.32,8.58-136.81,7.75-13.29,21.91-37.59,44.7-39.69,28.46-2.63,50.58,31.18,56.14,39.69Z"/></g><g><g class="cls-5"><path class="cls-2" d="M857.78,178.85h-156.54V107.92c18.01-28.98,33.29-35.85,44.56-35.97,19.17-.22,27.32,19.05,51.32,23.61,21.07,4,41.45-5.79,56.56-15.97l4.1,99.27Z"/></g><path class="cls-3" d="M835.48,3.94h-38.98V109.18c-2.62-9.47-5.97-19.62-10.3-30.14-13.58-33.03-31.37-56.76-45.89-72.63-12.99-.29-25.99-.59-38.98-.88V178.49h38.98V92.32c1.17,3.26,2.41,6.56,3.72,9.87,17.45,44.28,40.17,76.05,52.47,74.2,12.99,.17,25.99,.34,38.98,.51v-.16s.03,0,.05,0c4.96,.04,10.98-49.3,11.24-84.26,.16-21.66-1.78-51.98-11.29-88.54Z"/></g><g><g class="cls-9"><path class="cls-2" d="M1017.16,185.73h-145.63V114.79c16.75-28.98,30.97-35.85,41.45-35.97,17.84-.22,25.42,19.05,47.75,23.61,19.6,4,38.56-5.79,52.62-15.97,1.27,33.09,2.55,66.18,3.82,99.27Z"/></g><path class="cls-3" d="M907.43,17.38c44.97-33.11,110.21,.68,109.93,16.76-.36,20.47-107.08,22.36-108.57,49.36-1.52,27.64,109.38,43.5,107.78,67.22-1.23,18.22-69.13,45.32-112.61,9.99-3.49-2.83-30.4-25.48-32.32-65.4-1.63-33.94,15.63-63.09,35.79-77.93Z"/></g><g><g class="cls-8"><path class="cls-2" d="M1187.96,176.67h-145.63V105.73c16.75-28.98,30.97-35.85,41.45-35.97,17.84-.22,25.42,19.05,47.75,23.61,19.6,4,38.56-5.79,52.62-15.97,1.27,33.09,2.55,66.18,3.82,99.27Z"/></g><path class="cls-3" d="M1103.97,116.06c1.13-14.61,54.92-18.21,54.86-30.31-.06-12.15-54.39-16.33-54.86-28.77-.59-15.63,84.46-26.37,83.93-38.36-.25-5.68-19.7-11.71-85.02-16.5h-60.31V87.53c-.15,2.53-.17,5.11-.02,7.74,0,.13,.02,.25,.02,.38v81.02h60.31c65.34-1.02,84.02-6.36,84.65-12.28,1.38-13.06-85-29.64-83.56-48.34Z"/></g></g></svg>