<?xml version="1.0" encoding="UTF-8"?><svg id="Layer_2" xmlns="http://www.w3.org/2000/svg" width="402" height="482" xmlns:xlink="http://www.w3.org/1999/xlink" viewBox="0 0 402 482"><defs><style>.cls-1{clip-path:url(#clippath);}.cls-2{fill:none;}.cls-2,.cls-3{stroke:#000;stroke-miterlimit:10;stroke-width:2px;}</style><clipPath id="clippath"><path class="cls-2" d="M377.23,327.2c-15.22-12.34-30.18,1.55-86.86,7.03-46.27,4.47-81.8,6.61-114-14.06-23.33-14.97-42.33-44.03-44.52-77.31-2.3-34.92,14.3-68.73,38-86.68,11.71-8.87,26.66-15,120.52-14.06,66.74,.67,83.49,4.02,96.63-10.54,17.68-19.59,18.44-60.11,3.26-86.68C362.15-4.28,282.28-.61,208.94,2.75c-65.74,3.01-98.61,4.52-124.86,22.25C-24.83,98.57-26.69,371.55,78.65,446.67c22.06,15.73,53.79,19.47,117.26,26.94,84.39,9.94,143.59,15.95,175.89-23.43,29.76-36.28,29.86-103.19,5.43-122.99Z"/></clipPath></defs><g id="Layer_1-2"><g><g class="cls-1"><path class="cls-3" d="M401.81,489.59H1.31v-195.07c46.07-79.7,85.17-98.58,114-98.93,49.05-.6,69.9,52.4,131.31,64.93,53.9,11,106.04-15.93,144.69-43.93l10.5,273Z"/></g><path class="cls-2" d="M377.23,327.2c-15.22-12.34-30.18,1.55-86.86,7.03-46.27,4.47-81.8,6.61-114-14.06-23.33-14.97-42.33-44.03-44.52-77.31-2.3-34.92,14.3-68.73,38-86.68,11.71-8.87,26.66-15,120.52-14.06,66.74,.67,83.49,4.02,96.63-10.54,17.68-19.59,18.44-60.11,3.26-86.68C362.15-4.28,282.28-.61,208.94,2.75c-65.74,3.01-98.61,4.52-124.86,22.25C-24.83,98.57-26.69,371.55,78.65,446.67c22.06,15.73,53.79,19.47,117.26,26.94,84.39,9.94,143.59,15.95,175.89-23.43,29.76-36.28,29.86-103.19,5.43-122.99Z"/></g></g></svg>