<?xml version="1.0" encoding="UTF-8"?><svg id="Layer_2" xmlns="http://www.w3.org/2000/svg" width="402" height="482" xmlns:xlink="http://www.w3.org/1999/xlink" viewBox="0 0 402 482"><defs><style>.cls-1{clip-path:url(#clippath);}.cls-2{fill:none;}.cls-2,.cls-3{stroke:#000;stroke-miterlimit:10;stroke-width:2px;}</style><clipPath id="clippath"><path class="cls-2" d="M168.37,367.29c-45.77-8.78-65.5-26.92-73.46-35.45-30.03-32.2-28.64-73.75-28.33-83.05,1.37-40.92,22.89-68.58,30.43-77.99,28.9-36.06,67.71-48.34,78.7-51.65,98.13-29.62,174.55,47.61,210.93,14.18,19.44-17.87,16.64-53.83,6.3-75.96C364.49-3.52,250.13-6.51,180.96,8.75c-21.98,4.85-57.71,13.12-93.4,40.51C13.77,105.9-.71,198.86,1.72,238.32c-4.17,35.68,7.97,135.02,85.37,194.43,35.69,27.39,71.42,35.67,93.4,40.51,69.16,15.25,183.52,12.27,211.98-48.62,10.31-22.06,13.3-58.44-6.3-75.96-34.99-31.3-107.11,39.85-217.8,18.61Z"/></clipPath></defs><g id="Layer_1-2"><g><g class="cls-1"><path class="cls-3" d="M422.91,479.19H-20.59v-195.07c51.02-79.7,94.31-98.58,126.24-98.93,54.31-.6,77.41,52.4,145.4,64.93,59.69,11,117.43-15.93,160.23-43.93l11.63,273Z"/></g><path class="cls-2" d="M168.37,367.29c-45.77-8.78-65.5-26.92-73.46-35.45-30.03-32.2-28.64-73.75-28.33-83.05,1.37-40.92,22.89-68.58,30.43-77.99,28.9-36.06,67.71-48.34,78.7-51.65,98.13-29.62,174.55,47.61,210.93,14.18,19.44-17.87,16.64-53.83,6.3-75.96C364.49-3.52,250.13-6.51,180.96,8.75c-21.98,4.85-57.71,13.12-93.4,40.51C13.77,105.9-.71,198.86,1.72,238.32c-4.17,35.68,7.97,135.02,85.37,194.43,35.69,27.39,71.42,35.67,93.4,40.51,69.16,15.25,183.52,12.27,211.98-48.62,10.31-22.06,13.3-58.44-6.3-75.96-34.99-31.3-107.11,39.85-217.8,18.61Z"/></g></g></svg>