<?xml version="1.0" encoding="UTF-8"?><svg id="Layer_2" xmlns="http://www.w3.org/2000/svg" width="403.02" height="482.06" xmlns:xlink="http://www.w3.org/1999/xlink" viewBox="0 0 403.02 482.06"><defs><style>.cls-1{clip-path:url(#clippath);}.cls-2,.cls-3{stroke:#000;stroke-miterlimit:10;}.cls-3{fill:none;stroke-width:2px;}</style><clipPath id="clippath"><path class="cls-3" d="M99.71,39.58c123.67-91.06,303.08,1.87,302.31,46.08-.98,56.28-294.48,61.5-298.56,135.74-4.18,76.01,300.8,119.63,296.41,184.86-3.38,50.1-190.1,124.62-309.68,27.49-9.59-7.79-83.6-70.06-88.88-179.85C-3.19,160.55,44.28,80.39,99.71,39.58Z"/></clipPath></defs><g id="Layer_1-2"><g><g class="cls-1"><path class="cls-2" d="M401.48,502.53H.98v-195.07c46.07-79.7,85.17-98.58,114-98.93,49.05-.6,69.9,52.4,131.31,64.93,53.9,11,106.04-15.93,144.69-43.93l10.5,273Z"/></g><path class="cls-3" d="M99.71,39.58c123.67-91.06,303.08,1.87,302.31,46.08-.98,56.28-294.48,61.5-298.56,135.74-4.18,76.01,300.8,119.63,296.41,184.86-3.38,50.1-190.1,124.62-309.68,27.49-9.59-7.79-83.6-70.06-88.88-179.85C-3.19,160.55,44.28,80.39,99.71,39.58Z"/></g></g></svg>