<?xml version="1.0" encoding="UTF-8"?><svg id="Layer_2" xmlns="http://www.w3.org/2000/svg" width="402" height="482" xmlns:xlink="http://www.w3.org/1999/xlink" viewBox="0 0 402 482"><defs><style>.cls-1{clip-path:url(#clippath);}.cls-2{fill:none;}.cls-2,.cls-3{stroke:#000;stroke-miterlimit:10;stroke-width:2px;}</style><clipPath id="clippath"><path class="cls-2" d="M189.41,1.91C147.68-.31,81.33,.21,1,19.08V475.02c86.94,6.61,159.96,6.71,214.2,5.15,137.62-3.95,163.08-18.81,171.59-33.49,12.31-21.23-8.08-46.84-11.21-50.66-47.86-58.28-190.83-49.01-190.65-60.96,.16-10.33,106.88-3.37,136.82-46.37,14.73-21.16,4.14-44.73,3.36-46.37-26.66-56.61-168.76-60.95-167.1-73.84,1.95-15.12,194.78,9.55,235.51-49.8,15.77-22.99,2.22-49.09-1.12-54.95C362.42,11.12,252.71,5.28,189.41,1.91Z"/></clipPath></defs><g id="Layer_1-2"><g><g class="cls-1"><path class="cls-3" d="M401.5,487.55H1v-195.07c46.07-79.7,85.17-98.58,114-98.93,49.05-.6,69.9,52.4,131.31,64.93,53.9,11,106.04-15.93,144.69-43.93l10.5,273Z"/></g><path class="cls-2" d="M189.41,1.91C147.68-.31,81.33,.21,1,19.08V475.02c86.94,6.61,159.96,6.71,214.2,5.15,137.62-3.95,163.08-18.81,171.59-33.49,12.31-21.23-8.08-46.84-11.21-50.66-47.86-58.28-190.83-49.01-190.65-60.96,.16-10.33,106.88-3.37,136.82-46.37,14.73-21.16,4.14-44.73,3.36-46.37-26.66-56.61-168.76-60.95-167.1-73.84,1.95-15.12,194.78,9.55,235.51-49.8,15.77-22.99,2.22-49.09-1.12-54.95C362.42,11.12,252.71,5.28,189.41,1.91Z"/></g></g></svg>