<?xml version="1.0" encoding="UTF-8"?><svg id="Layer_2" xmlns="http://www.w3.org/2000/svg" width="383.87" height="482.89" xmlns:xlink="http://www.w3.org/1999/xlink" viewBox="0 0 383.87 482.89"><defs><style>.cls-1{clip-path:url(#clippath);}.cls-2{fill:none;}.cls-2,.cls-3{stroke:#000;stroke-miterlimit:10;stroke-width:2px;}</style><clipPath id="clippath"><path class="cls-2" d="M189.41,2.23c-30.58-2.7-66.72-.23-79.73,.68C77.83,5.11,41.16,9.96,1,19.4V475.34c43.47,3.31,83.46,4.98,119.36,5.64,46.72,.85,70.57,1.74,94.84-.49,70.77-6.5,149.45-31.28,148.19-49.24-.81-11.43-33.31-10.28-94-37-41.2-18.14-84.39-37.15-84.47-58.87-.15-38.48,135.1-53.47,134.47-86.13-.68-35.53-161.23-46.96-161.38-80.44-.1-22.29,70.9-43.65,117.38-51.56,68.57-11.67,102.48,2.76,107-9,8.05-20.92-87.64-96.71-192.98-106.02Z"/></clipPath></defs><g id="Layer_1-2"><g><g class="cls-1"><path class="cls-3" d="M382.5,511.75H-17.5v-195.07c46.02-79.7,85.06-98.58,113.86-98.93,48.99-.6,69.81,52.4,131.14,64.93,53.84,11,105.91-15.93,144.51-43.93,3.5,91,6.99,182,10.49,273Z"/></g><path class="cls-2" d="M189.41,2.23c-30.58-2.7-66.72-.23-79.73,.68C77.83,5.11,41.16,9.96,1,19.4V475.34c43.47,3.31,83.46,4.98,119.36,5.64,46.72,.85,70.57,1.74,94.84-.49,70.77-6.5,149.45-31.28,148.19-49.24-.81-11.43-33.31-10.28-94-37-41.2-18.14-84.39-37.15-84.47-58.87-.15-38.48,135.1-53.47,134.47-86.13-.68-35.53-161.23-46.96-161.38-80.44-.1-22.29,70.9-43.65,117.38-51.56,68.57-11.67,102.48,2.76,107-9,8.05-20.92-87.64-96.71-192.98-106.02Z"/></g></g></svg>