<?xml version="1.0" encoding="UTF-8"?><svg id="Layer_2" xmlns="http://www.w3.org/2000/svg" width="402" height="482" xmlns:xlink="http://www.w3.org/1999/xlink" viewBox="0 0 402 482"><defs><style>.cls-1{clip-path:url(#clippath);}.cls-2{fill:none;}.cls-2,.cls-3{stroke:#000;stroke-miterlimit:10;stroke-width:2px;}</style><clipPath id="clippath"><path class="cls-2" d="M170.2,314.32c3.1-40.17,151.02-50.08,150.87-83.34-.15-33.42-149.58-44.9-150.87-79.12-1.62-42.97,232.25-72.51,230.8-105.49-.69-15.62-54.17-32.19-233.8-45.36H1.34V235.86c-.42,6.96-.47,14.05-.07,21.27,.02,.35,.05,.7,.07,1.05v222.82H167.2c179.7-2.8,231.07-17.48,232.8-33.76,3.81-35.92-233.76-81.5-229.8-132.92Z"/></clipPath></defs><g id="Layer_1-2"><g><g class="cls-1"><path class="cls-3" d="M401.17,481H.67v-195.07c46.07-79.7,85.17-98.58,114-98.93,49.05-.6,69.9,52.4,131.31,64.93,53.9,11,106.04-15.93,144.69-43.93l10.5,273Z"/></g><path class="cls-2" d="M170.2,314.32c3.1-40.17,151.02-50.08,150.87-83.34-.15-33.42-149.58-44.9-150.87-79.12-1.62-42.97,232.25-72.51,230.8-105.49-.69-15.62-54.17-32.19-233.8-45.36H1.34V235.86c-.42,6.96-.47,14.05-.07,21.27,.02,.35,.05,.7,.07,1.05v222.82H167.2c179.7-2.8,231.07-17.48,232.8-33.76,3.81-35.92-233.76-81.5-229.8-132.92Z"/></g></g></svg>