<?xml version="1.0" encoding="UTF-8"?><svg id="Layer_2" xmlns="http://www.w3.org/2000/svg" width="744.43" height="743.92" viewBox="0 0 744.43 743.92"><defs><style>.cls-1{fill:#ffe5a7;}</style></defs><g id="Layer_1-2"><path class="cls-1" d="M374.24,743.92c-.77,0-1.54,0-2.31,0-48.77-.07-94.87-18.85-129.81-52.88-34.87-33.96-54.86-79.42-56.3-128-.06-1.92-.09-3.81-.09-5.61,0-49.75,19.36-96.53,54.5-131.74,35.14-35.2,81.89-54.64,131.63-54.73h.96c3.73-.04,13.64-.13,26.64-2.12,.33-.05,33.34-5.23,62.47-21.18,30.38-16.63,57.54-45.45,74.5-79.06,19.04-37.73,24.76-78.85,16.54-118.91-8.33-40.6-30.97-77.75-63.77-104.62C456.66,18.41,415.62,3.16,373.47,2.04c-.51-.01-1.02-.02-1.52-.04h-.03s0,0,0,0l.04-2c.54,0,1.08,.02,1.62,.04,54.38,1.35,157.03,15.46,245.44,93.35,56.91,50.14,85.95,108.12,98.19,138.22,17.93,44.06,27.34,92.6,27.22,140.35-.13,50.28-10.49,99.81-30.8,147.2-11.33,26.45-25.78,51.94-41.78,73.73-16.03,21.82-34.67,42.08-55.42,60.2-32.71,28.58-69.54,50.88-109.48,66.27-42.27,16.3-86.91,24.55-132.71,24.55ZM410.83,4.72c29.07,6.58,56.49,19.83,79.65,38.8,33.15,27.15,56.04,64.72,64.46,105.76,8.31,40.51,2.53,82.07-16.72,120.21-17.14,33.97-44.59,63.1-75.32,79.92-29.45,16.12-62.8,21.35-63.13,21.4-13.15,2.01-23.16,2.1-26.93,2.13h-.88c-49.3,.1-95.54,19.33-130.31,54.16-34.77,34.83-53.92,81.12-53.92,130.33,0,1.78,.02,3.64,.08,5.54,1.42,48.06,21.2,93.03,55.69,126.62,34.56,33.66,80.17,52.24,128.42,52.31,.77,0,1.54,0,2.3,0,45.56,0,89.96-8.21,132-24.42,39.72-15.31,76.35-37.49,108.89-65.91,20.63-18.03,39.18-38.18,55.12-59.88,21.61-29.43,71.91-109.74,72.19-219.75,.12-47.5-9.24-95.77-27.07-139.59-12.18-29.93-41.07-87.6-97.66-137.47h0C547.17,32.75,467.52,11.42,410.83,4.72Z"/><path class="cls-1" d="M372.47,743.92c-.55,0-1.1-.02-1.64-.04-54.39-1.35-157.02-15.47-245.42-93.35-56.91-50.14-85.95-108.12-98.19-138.22C9.29,468.25-.12,419.72,0,371.96c.28-110.6,50.85-191.35,72.58-220.93,16.03-21.82,34.67-42.08,55.42-60.2,32.71-28.58,69.54-50.88,109.48-66.27C279.75,8.26,324.39,0,370.19,0c.77,0,1.54,0,2.31,0,48.77,.07,94.88,18.85,129.81,52.88,34.87,33.96,54.86,79.42,56.3,128,.06,1.93,.09,3.81,.08,5.61,0,49.75-19.36,96.53-54.5,131.74-35.14,35.2-81.89,54.64-131.63,54.73h-.96c-3.73,.04-13.64,.13-26.64,2.12-.33,.05-33.34,5.23-62.47,21.18-30.38,16.63-57.54,45.45-74.5,79.06-19.04,37.73-24.76,78.85-16.54,118.91,8.33,40.6,30.97,77.75,63.77,104.62,32.54,26.66,73.58,41.91,115.72,43.04,.52,.01,1.03,.02,1.54,.04h.03s0,0,0,0l-.04,2ZM370.2,2c-45.56,0-89.96,8.21-132,24.42-39.72,15.31-76.35,37.49-108.89,65.92-20.63,18.03-39.18,38.17-55.12,59.88C52.58,181.64,2.28,261.95,2,371.96c-.12,47.5,9.24,95.77,27.07,139.59,12.18,29.94,41.06,87.6,97.66,137.47,70.52,62.13,150.17,83.46,206.86,90.17-29.06-6.58-56.48-19.83-79.64-38.8-33.15-27.16-56.04-64.72-64.46-105.76-8.31-40.5-2.53-82.07,16.72-120.21,17.14-33.97,44.59-63.1,75.32-79.91,29.45-16.12,62.8-21.35,63.13-21.4,13.15-2.01,23.16-2.1,26.93-2.13h.88c49.3-.1,95.54-19.33,130.31-54.16,34.77-34.83,53.92-81.12,53.92-130.33,0-1.77-.02-3.64-.08-5.54-1.42-48.06-21.2-93.03-55.69-126.62C466.36,20.65,420.75,2.08,372.5,2.01c-.77,0-1.54,0-2.3,0Z"/><path class="cls-1" d="M360.16,219.68c-25.35,0-45.97-20.62-45.97-45.97s20.62-45.97,45.97-45.97,45.97,20.62,45.97,45.97-20.62,45.97-45.97,45.97Zm0-89.95c-24.25,0-43.97,19.73-43.97,43.97s19.73,43.97,43.97,43.97,43.97-19.73,43.97-43.97-19.73-43.97-43.97-43.97Z"/><path class="cls-1" d="M358.95,595.82c-25.35,0-45.97-20.62-45.97-45.97s20.62-45.97,45.97-45.97,45.97,20.62,45.97,45.97-20.62,45.97-45.97,45.97Zm0-89.94c-24.25,0-43.97,19.73-43.97,43.97s19.73,43.97,43.97,43.97,43.97-19.73,43.97-43.97-19.73-43.97-43.97-43.97Z"/></g></svg>